<?xml version="1.0" encoding="UTF-8" standalone="no"?>
<!DOCTYPE svg PUBLIC "-//W3C//DTD SVG 1.1//EN" "http://www.w3.org/Graphics/SVG/1.1/DTD/svg11.dtd">
<svg width="100%" height="100%" viewBox="0 0 135 174" version="1.1" xmlns="http://www.w3.org/2000/svg" xmlns:xlink="http://www.w3.org/1999/xlink" xml:space="preserve" style="fill-rule:evenodd;clip-rule:evenodd;stroke-linejoin:round;stroke-miterlimit:1.41421;">
    <g transform="matrix(1,0,0,1,-134.416,-386.802)">
        <g>
            <g transform="matrix(0.384684,0,0,0.384684,-24.7625,287.895)">
                <path d="M588.345,257.113C684.683,257.113 762.898,336.251 762.898,433.728C762.898,531.204 588.345,708.805 588.345,708.805C588.345,708.805 413.792,531.204 413.792,433.728C413.792,336.251 492.006,257.113 588.345,257.113Z" style="fill:rgb(204,105,51);"/>
            </g>
            <g transform="matrix(3.54842,0,0,3.54842,158.983,414.882)">
                <circle cx="4.5" cy="9.5" r="2.5" style="fill:black;"/>
                <circle cx="9" cy="5.5" r="2.5" style="fill:black;"/>
                <circle cx="15" cy="5.5" r="2.5" style="fill:black;"/>
                <circle cx="19.5" cy="9.5" r="2.5" style="fill:black;"/>
                <path d="M17.34,14.86C16.47,13.84 15.74,12.97 14.86,11.95C14.4,11.41 13.81,10.87 13.11,10.63C13,10.59 12.89,10.56 12.78,10.54C12.53,10.5 12.26,10.5 12,10.5C11.74,10.5 11.47,10.5 11.21,10.55C11.1,10.57 10.99,10.6 10.88,10.64C10.18,10.88 9.6,11.42 9.13,11.96C8.26,12.98 7.53,13.85 6.65,14.87C5.34,16.18 3.73,17.63 4.03,19.66C4.32,20.68 5.05,21.69 6.36,21.98C7.09,22.13 9.42,21.54 11.9,21.54L12.08,21.54C14.56,21.54 16.89,22.12 17.62,21.98C18.93,21.69 19.66,20.67 19.95,19.66C20.26,17.62 18.65,16.17 17.34,14.86L17.34,14.86Z" style="fill:black;fill-rule:nonzero;"/>
            </g>
        </g>
    </g>
</svg>
