<?xml version="1.0" encoding="UTF-8" standalone="no"?>
<!DOCTYPE svg PUBLIC "-//W3C//DTD SVG 1.1//EN" "http://www.w3.org/Graphics/SVG/1.1/DTD/svg11.dtd">
<svg width="100%" height="100%" viewBox="0 0 135 174" version="1.1" xmlns="http://www.w3.org/2000/svg" xmlns:xlink="http://www.w3.org/1999/xlink" xml:space="preserve" style="fill-rule:evenodd;clip-rule:evenodd;stroke-linejoin:round;stroke-miterlimit:1.41421;">
    <g transform="matrix(1,0,0,1,-134.416,-601.943)">
        <g>
            <g transform="matrix(0.384684,0,0,0.384684,-24.7625,503.036)">
                <path d="M588.345,257.113C684.683,257.113 762.898,336.251 762.898,433.728C762.898,531.204 588.345,708.805 588.345,708.805C588.345,708.805 413.792,531.204 413.792,433.728C413.792,336.251 492.006,257.113 588.345,257.113Z" style="fill:rgb(38,185,217);"/>
            </g>
            <g transform="matrix(4.0152,0,0,4.0152,153.382,622.784)">
                <path d="M12,3C7.03,3 3,7.03 3,12C3,16.97 7.03,21 12,21C12.83,21 13.5,20.33 13.5,19.5C13.5,19.11 13.35,18.76 13.11,18.49C12.88,18.23 12.73,17.88 12.73,17.5C12.73,16.67 13.4,16 14.23,16L16,16C18.76,16 21,13.76 21,11C21,6.58 16.97,3 12,3ZM6.5,12C5.67,12 5,11.33 5,10.5C5,9.67 5.67,9 6.5,9C7.33,9 8,9.67 8,10.5C8,11.33 7.33,12 6.5,12ZM9.5,8C8.67,8 8,7.33 8,6.5C8,5.67 8.67,5 9.5,5C10.33,5 11,5.67 11,6.5C11,7.33 10.33,8 9.5,8ZM14.5,8C13.67,8 13,7.33 13,6.5C13,5.67 13.67,5 14.5,5C15.33,5 16,5.67 16,6.5C16,7.33 15.33,8 14.5,8ZM17.5,12C16.67,12 16,11.33 16,10.5C16,9.67 16.67,9 17.5,9C18.33,9 19,9.67 19,10.5C19,11.33 18.33,12 17.5,12Z" style="fill:black;fill-rule:nonzero;"/>
            </g>
        </g>
    </g>
</svg>
