<?xml version="1.0" encoding="UTF-8" standalone="no"?>
<!DOCTYPE svg PUBLIC "-//W3C//DTD SVG 1.1//EN" "http://www.w3.org/Graphics/SVG/1.1/DTD/svg11.dtd">
<svg width="100%" height="100%" viewBox="0 0 135 174" version="1.1" xmlns="http://www.w3.org/2000/svg" xmlns:xlink="http://www.w3.org/1999/xlink" xml:space="preserve" style="fill-rule:evenodd;clip-rule:evenodd;stroke-linejoin:round;stroke-miterlimit:1.41421;">
    <g transform="matrix(1,0,0,1,-475.296,-171.03)">
        <g>
            <g transform="matrix(0.384684,0,0,0.384684,316.117,72.1228)">
                <path d="M588.345,257.113C684.683,257.113 762.898,336.251 762.898,433.728C762.898,531.204 588.345,708.805 588.345,708.805C588.345,708.805 413.792,531.204 413.792,433.728C413.792,336.251 492.006,257.113 588.345,257.113Z" style="fill:rgb(255,189,0);"/>
            </g>
            <g transform="matrix(2.92699,0,0,2.92699,503.32,207.693)">
                <clipPath id="_clip1">
                    <path d="M0,0L24,0L24,24L0,24L0,0Z"/>
                </clipPath>
                <g clip-path="url(#_clip1)">
                    <path d="M23,5.5L23,20C23,22.2 21.2,24 19,24L11.7,24C10.62,24 9.6,23.57 8.85,22.81L1,14.83C1,14.83 2.26,13.6 2.3,13.58C2.52,13.39 2.79,13.29 3.09,13.29C3.31,13.29 3.51,13.35 3.69,13.45C3.73,13.46 8,15.91 8,15.91L8,4C8,3.17 8.67,2.5 9.5,2.5C10.33,2.5 11,3.17 11,4L11,11L12,11L12,1.5C12,0.67 12.67,0 13.5,0C14.33,0 15,0.67 15,1.5L15,11L16,11L16,2.5C16,1.67 16.67,1 17.5,1C18.33,1 19,1.67 19,2.5L19,11L20,11L20,5.5C20,4.67 20.67,4 21.5,4C22.33,4 23,4.67 23,5.5Z" style="fill:black;fill-rule:nonzero;"/>
                </g>
            </g>
        </g>
    </g>
</svg>
