<?xml version="1.0" encoding="UTF-8" standalone="no"?>
<!DOCTYPE svg PUBLIC "-//W3C//DTD SVG 1.1//EN" "http://www.w3.org/Graphics/SVG/1.1/DTD/svg11.dtd">
<svg width="100%" height="100%" viewBox="0 0 135 174" version="1.1" xmlns="http://www.w3.org/2000/svg" xmlns:xlink="http://www.w3.org/1999/xlink" xml:space="preserve" style="fill-rule:evenodd;clip-rule:evenodd;stroke-linejoin:round;stroke-miterlimit:1.41421;">
    <g transform="matrix(1,0,0,1,-475.296,-386.802)">
        <g>
            <g transform="matrix(0.384684,0,0,0.384684,316.117,287.895)">
                <path d="M588.345,257.113C684.683,257.113 762.898,336.251 762.898,433.728C762.898,531.204 588.345,708.805 588.345,708.805C588.345,708.805 413.792,531.204 413.792,433.728C413.792,336.251 492.006,257.113 588.345,257.113Z" style="fill:rgb(204,105,51);"/>
            </g>
            <g transform="matrix(3.87629,0,0,3.87629,495.928,418.035)">
                <path d="M12,22C16.97,22 21,17.97 21,13C16.03,13 12,17.03 12,22ZM5.6,10.25C5.6,11.63 6.72,12.75 8.1,12.75C8.63,12.75 9.11,12.59 9.52,12.31L9.5,12.5C9.5,13.88 10.62,15 12,15C13.38,15 14.5,13.88 14.5,12.5L14.48,12.31C14.88,12.59 15.37,12.75 15.9,12.75C17.28,12.75 18.4,11.63 18.4,10.25C18.4,9.25 17.81,8.4 16.97,8C17.81,7.6 18.4,6.75 18.4,5.75C18.4,4.37 17.28,3.25 15.9,3.25C15.37,3.25 14.89,3.41 14.48,3.69L14.5,3.5C14.5,2.12 13.38,1 12,1C10.62,1 9.5,2.12 9.5,3.5L9.52,3.69C9.12,3.41 8.63,3.25 8.1,3.25C6.72,3.25 5.6,4.37 5.6,5.75C5.6,6.75 6.19,7.6 7.03,8C6.19,8.4 5.6,9.25 5.6,10.25ZM12,5.5C13.38,5.5 14.5,6.62 14.5,8C14.5,9.38 13.38,10.5 12,10.5C10.62,10.5 9.5,9.38 9.5,8C9.5,6.62 10.62,5.5 12,5.5ZM3,13C3,17.97 7.03,22 12,22C12,17.03 7.97,13 3,13Z" style="fill:black;fill-rule:nonzero;"/>
            </g>
        </g>
    </g>
</svg>
