<?xml version="1.0" encoding="UTF-8" standalone="no"?>
<!DOCTYPE svg PUBLIC "-//W3C//DTD SVG 1.1//EN" "http://www.w3.org/Graphics/SVG/1.1/DTD/svg11.dtd">
<svg width="100%" height="100%" viewBox="0 0 135 174" version="1.1" xmlns="http://www.w3.org/2000/svg" xmlns:xlink="http://www.w3.org/1999/xlink" xml:space="preserve" style="fill-rule:evenodd;clip-rule:evenodd;stroke-linejoin:round;stroke-miterlimit:1.41421;">
    <g transform="matrix(1,0,0,1,-655.878,-171.03)">
        <g>
            <g transform="matrix(0.384684,0,0,0.384684,496.699,72.1228)">
                <path d="M588.345,257.113C684.683,257.113 762.898,336.251 762.898,433.728C762.898,531.204 588.345,708.805 588.345,708.805C588.345,708.805 413.792,531.204 413.792,433.728C413.792,336.251 492.006,257.113 588.345,257.113Z" style="fill:rgb(255,189,0);"/>
            </g>
            <g transform="matrix(0.596854,0.360335,-0.360335,0.596854,659.28,-477.903)">
                <g transform="matrix(0.0389918,0,0,0.075591,591.394,758.421)">
                    <path d="M588.345,155.001C588.345,155.001 762.898,336.251 762.898,433.728C762.898,531.204 588.345,708.805 588.345,708.805C588.345,708.805 413.792,531.204 413.792,433.728C413.792,336.251 588.345,155.001 588.345,155.001Z" style="fill:black;"/>
                </g>
                <g transform="matrix(0.0360437,-0.0148733,0.0288339,0.0698756,561.596,774.667)">
                    <path d="M588.345,155.001C588.345,155.001 762.898,336.251 762.898,433.728C762.898,531.204 588.345,708.805 588.345,708.805C588.345,708.805 413.792,531.204 413.792,433.728C413.792,336.251 588.345,155.001 588.345,155.001Z" style="fill:black;"/>
                </g>
                <g transform="matrix(-0.0360437,-0.0148733,-0.0288339,0.0698756,667.073,774.667)">
                    <path d="M588.345,155.001C588.345,155.001 762.898,336.251 762.898,433.728C762.898,531.204 588.345,708.805 588.345,708.805C588.345,708.805 413.792,531.204 413.792,433.728C413.792,336.251 588.345,155.001 588.345,155.001Z" style="fill:black;"/>
                </g>
                <g transform="matrix(-0.87909,5.55112e-17,0,-1,1151.86,1718.92)">
                    <path d="M611.5,807.724C622.321,807.497 640.094,888.215 635.304,896.888C630.749,905.138 592.168,904.157 587.696,896.888C583.723,890.43 600.668,807.951 611.5,807.724Z" style="fill:black;"/>
                </g>
            </g>
        </g>
    </g>
</svg>
