<?xml version="1.0" encoding="UTF-8" standalone="no"?>
<!DOCTYPE svg PUBLIC "-//W3C//DTD SVG 1.1//EN" "http://www.w3.org/Graphics/SVG/1.1/DTD/svg11.dtd">
<svg width="100%" height="100%" viewBox="0 0 135 174" version="1.1" xmlns="http://www.w3.org/2000/svg" xmlns:xlink="http://www.w3.org/1999/xlink" xml:space="preserve" style="fill-rule:evenodd;clip-rule:evenodd;stroke-linejoin:round;stroke-miterlimit:1.41421;">
    <g transform="matrix(1,0,0,1,-297.585,-601.943)">
        <g>
            <g transform="matrix(0.384684,0,0,0.384684,138.406,503.036)">
                <path d="M588.345,257.113C684.683,257.113 762.898,336.251 762.898,433.728C762.898,531.204 588.345,708.805 588.345,708.805C588.345,708.805 413.792,531.204 413.792,433.728C413.792,336.251 492.006,257.113 588.345,257.113Z" style="fill:rgb(38,185,217);"/>
            </g>
            <g transform="matrix(4.02423,0,0,4.02423,316.442,627.852)">
                <path d="M7.626,21L7.626,19L11,19L11,14C11,14 7.028,13.169 4.971,5C4.645,3.705 4.756,3.066 4.756,3.066L12,3.036L19.244,3.066C19.244,3.066 19.355,3.705 19.029,5C16.972,13.169 13,14 13,14L13,19L16.374,19L16.374,21L7.626,21ZM14.599,7C14.61,7.001 16.559,7.13 16.369,5L7.631,5C7.441,7.132 9.394,7.001 9.401,7L14.599,7Z" style="fill:black;"/>
            </g>
        </g>
    </g>
</svg>
