<?xml version="1.0" encoding="UTF-8" standalone="no"?>
<!DOCTYPE svg PUBLIC "-//W3C//DTD SVG 1.1//EN" "http://www.w3.org/Graphics/SVG/1.1/DTD/svg11.dtd">
<svg width="100%" height="100%" viewBox="0 0 300 127" version="1.1" xmlns="http://www.w3.org/2000/svg" xmlns:xlink="http://www.w3.org/1999/xlink" xml:space="preserve" style="fill-rule:evenodd;clip-rule:evenodd;stroke-linejoin:round;stroke-miterlimit:1.41421;">
    <g transform="matrix(1,0,0,1,-79.7816,-127.635)">
        <g>
            <g transform="matrix(1,0,0,1,1.44201,28.1195)">
                <path d="M123.94,195.605C121.636,198.549 118.724,200.821 115.204,202.421C111.684,204.021 108.036,204.821 104.26,204.821C100.676,204.821 97.3,204.245 94.132,203.093C90.964,201.941 88.212,200.293 85.876,198.149C83.54,196.005 81.7,193.429 80.356,190.421C79.012,187.413 78.34,184.053 78.34,180.341C78.34,176.629 79.012,173.269 80.356,170.261C81.7,167.253 83.54,164.677 85.876,162.533C88.212,160.389 90.964,158.741 94.132,157.589C97.3,156.437 100.676,155.861 104.26,155.861C107.588,155.861 110.612,156.437 113.332,157.589C116.052,158.741 118.356,160.389 120.244,162.533C122.132,164.677 123.588,167.253 124.612,170.261C125.636,173.269 126.148,176.629 126.148,180.341L126.148,184.853L92.74,184.853C93.316,187.605 94.564,189.797 96.484,191.429C98.404,193.061 100.772,193.877 103.588,193.877C105.956,193.877 107.956,193.349 109.588,192.293C111.22,191.237 112.644,189.877 113.86,188.213L123.94,195.605ZM111.748,175.061C111.812,172.629 111.012,170.549 109.348,168.821C107.684,167.093 105.54,166.229 102.916,166.229C101.316,166.229 99.908,166.485 98.692,166.997C97.476,167.509 96.436,168.165 95.572,168.965C94.708,169.765 94.036,170.693 93.556,171.749C93.076,172.805 92.804,173.909 92.74,175.061L111.748,175.061Z" style="fill:rgb(204,105,51);fill-rule:nonzero;"/>
                <clipPath id="_clip1">
                    <path d="M123.94,195.605C121.636,198.549 118.724,200.821 115.204,202.421C111.684,204.021 108.036,204.821 104.26,204.821C100.676,204.821 97.3,204.245 94.132,203.093C90.964,201.941 88.212,200.293 85.876,198.149C83.54,196.005 81.7,193.429 80.356,190.421C79.012,187.413 78.34,184.053 78.34,180.341C78.34,176.629 79.012,173.269 80.356,170.261C81.7,167.253 83.54,164.677 85.876,162.533C88.212,160.389 90.964,158.741 94.132,157.589C97.3,156.437 100.676,155.861 104.26,155.861C107.588,155.861 110.612,156.437 113.332,157.589C116.052,158.741 118.356,160.389 120.244,162.533C122.132,164.677 123.588,167.253 124.612,170.261C125.636,173.269 126.148,176.629 126.148,180.341L126.148,184.853L92.74,184.853C93.316,187.605 94.564,189.797 96.484,191.429C98.404,193.061 100.772,193.877 103.588,193.877C105.956,193.877 107.956,193.349 109.588,192.293C111.22,191.237 112.644,189.877 113.86,188.213L123.94,195.605ZM111.748,175.061C111.812,172.629 111.012,170.549 109.348,168.821C107.684,167.093 105.54,166.229 102.916,166.229C101.316,166.229 99.908,166.485 98.692,166.997C97.476,167.509 96.436,168.165 95.572,168.965C94.708,169.765 94.036,170.693 93.556,171.749C93.076,172.805 92.804,173.909 92.74,175.061L111.748,175.061Z" clip-rule="nonzero"/>
                </clipPath>
                <g clip-path="url(#_clip1)">
                    <g transform="matrix(0.933595,0,0,1,14.8462,-28.1195)">
                        <rect x="228.561" y="156.407" width="16.727" height="86.729" style="fill:white;"/>
                    </g>
                </g>
                <path d="M140.74,178.709L125.188,157.013L142.18,157.013L150.436,169.685L158.404,157.013L174.436,157.013L159.268,178.709L177.22,203.669L160.228,203.669L150.052,188.117L139.108,203.669L122.308,203.669L140.74,178.709Z" style="fill:rgb(204,105,51);fill-rule:nonzero;"/>
                <clipPath id="_clip2">
                    <path d="M140.74,178.709L125.188,157.013L142.18,157.013L150.436,169.685L158.404,157.013L174.436,157.013L159.268,178.709L177.22,203.669L160.228,203.669L150.052,188.117L139.108,203.669L122.308,203.669L140.74,178.709Z" clip-rule="nonzero"/>
                </clipPath>
                <g clip-path="url(#_clip2)">
                    <g transform="matrix(0.933595,0,0,1,14.8462,-28.1195)">
                        <rect x="228.561" y="156.407" width="16.727" height="86.729" style="fill:white;"/>
                    </g>
                </g>
                <path d="M176.164,157.013L189.412,157.013L189.412,163.157L189.604,163.157C190.18,162.325 190.932,161.477 191.86,160.613C192.788,159.749 193.876,158.965 195.124,158.261C196.372,157.557 197.732,156.981 199.204,156.533C200.676,156.085 202.244,155.861 203.908,155.861C207.364,155.861 210.5,156.453 213.316,157.637C216.132,158.821 218.548,160.485 220.564,162.629C222.58,164.773 224.132,167.317 225.22,170.261C226.308,173.205 226.852,176.437 226.852,179.957C226.852,183.221 226.356,186.341 225.364,189.317C224.372,192.293 222.964,194.933 221.14,197.237C219.316,199.541 217.092,201.381 214.468,202.757C211.844,204.133 208.868,204.821 205.54,204.821C202.532,204.821 199.732,204.357 197.14,203.429C194.548,202.501 192.42,200.917 190.756,198.677L190.564,198.677L190.564,225.557L176.164,225.557L176.164,157.013ZM189.412,180.341C189.412,183.861 190.42,186.709 192.436,188.885C194.452,191.061 197.284,192.149 200.932,192.149C204.58,192.149 207.412,191.061 209.428,188.885C211.444,186.709 212.452,183.861 212.452,180.341C212.452,176.821 211.444,173.973 209.428,171.797C207.412,169.621 204.58,168.533 200.932,168.533C197.284,168.533 194.452,169.621 192.436,171.797C190.42,173.973 189.412,176.821 189.412,180.341Z" style="fill:rgb(204,105,51);fill-rule:nonzero;"/>
                <clipPath id="_clip3">
                    <path d="M176.164,157.013L189.412,157.013L189.412,163.157L189.604,163.157C190.18,162.325 190.932,161.477 191.86,160.613C192.788,159.749 193.876,158.965 195.124,158.261C196.372,157.557 197.732,156.981 199.204,156.533C200.676,156.085 202.244,155.861 203.908,155.861C207.364,155.861 210.5,156.453 213.316,157.637C216.132,158.821 218.548,160.485 220.564,162.629C222.58,164.773 224.132,167.317 225.22,170.261C226.308,173.205 226.852,176.437 226.852,179.957C226.852,183.221 226.356,186.341 225.364,189.317C224.372,192.293 222.964,194.933 221.14,197.237C219.316,199.541 217.092,201.381 214.468,202.757C211.844,204.133 208.868,204.821 205.54,204.821C202.532,204.821 199.732,204.357 197.14,203.429C194.548,202.501 192.42,200.917 190.756,198.677L190.564,198.677L190.564,225.557L176.164,225.557L176.164,157.013ZM189.412,180.341C189.412,183.861 190.42,186.709 192.436,188.885C194.452,191.061 197.284,192.149 200.932,192.149C204.58,192.149 207.412,191.061 209.428,188.885C211.444,186.709 212.452,183.861 212.452,180.341C212.452,176.821 211.444,173.973 209.428,171.797C207.412,169.621 204.58,168.533 200.932,168.533C197.284,168.533 194.452,169.621 192.436,171.797C190.42,173.973 189.412,176.821 189.412,180.341Z" clip-rule="nonzero"/>
                </clipPath>
                <g clip-path="url(#_clip3)">
                    <g transform="matrix(0.933595,0,0,1,14.8462,-28.1195)">
                        <rect x="228.561" y="156.407" width="16.727" height="86.729" style="fill:white;"/>
                    </g>
                </g>
                <path d="M245.092,180.341C245.092,176.629 245.764,173.269 247.108,170.261C248.452,167.253 250.292,164.677 252.628,162.533C254.964,160.389 257.716,158.741 260.884,157.589C264.052,156.437 267.428,155.861 271.012,155.861C274.596,155.861 277.972,156.437 281.14,157.589C284.308,158.741 287.06,160.389 289.396,162.533C291.732,164.677 293.572,167.253 294.916,170.261C296.26,173.269 296.932,176.629 296.932,180.341C296.932,184.053 296.26,187.413 294.916,190.421C293.572,193.429 291.732,196.005 289.396,198.149C287.06,200.293 284.308,201.941 281.14,203.093C277.972,204.245 274.596,204.821 271.012,204.821C267.428,204.821 264.052,204.245 260.884,203.093C257.716,201.941 254.964,200.293 252.628,198.149C250.292,196.005 248.452,193.429 247.108,190.421C245.764,187.413 245.092,184.053 245.092,180.341ZM259.492,180.341C259.492,183.861 260.5,186.709 262.516,188.885C264.532,191.061 267.364,192.149 271.012,192.149C274.66,192.149 277.492,191.061 279.508,188.885C281.524,186.709 282.532,183.861 282.532,180.341C282.532,176.821 281.524,173.973 279.508,171.797C277.492,169.621 274.66,168.533 271.012,168.533C267.364,168.533 264.532,169.621 262.516,171.797C260.5,173.973 259.492,176.821 259.492,180.341Z" style="fill:rgb(204,105,51);fill-rule:nonzero;"/>
                <clipPath id="_clip4">
                    <path d="M245.092,180.341C245.092,176.629 245.764,173.269 247.108,170.261C248.452,167.253 250.292,164.677 252.628,162.533C254.964,160.389 257.716,158.741 260.884,157.589C264.052,156.437 267.428,155.861 271.012,155.861C274.596,155.861 277.972,156.437 281.14,157.589C284.308,158.741 287.06,160.389 289.396,162.533C291.732,164.677 293.572,167.253 294.916,170.261C296.26,173.269 296.932,176.629 296.932,180.341C296.932,184.053 296.26,187.413 294.916,190.421C293.572,193.429 291.732,196.005 289.396,198.149C287.06,200.293 284.308,201.941 281.14,203.093C277.972,204.245 274.596,204.821 271.012,204.821C267.428,204.821 264.052,204.245 260.884,203.093C257.716,201.941 254.964,200.293 252.628,198.149C250.292,196.005 248.452,193.429 247.108,190.421C245.764,187.413 245.092,184.053 245.092,180.341ZM259.492,180.341C259.492,183.861 260.5,186.709 262.516,188.885C264.532,191.061 267.364,192.149 271.012,192.149C274.66,192.149 277.492,191.061 279.508,188.885C281.524,186.709 282.532,183.861 282.532,180.341C282.532,176.821 281.524,173.973 279.508,171.797C277.492,169.621 274.66,168.533 271.012,168.533C267.364,168.533 264.532,169.621 262.516,171.797C260.5,173.973 259.492,176.821 259.492,180.341Z" clip-rule="nonzero"/>
                </clipPath>
                <g clip-path="url(#_clip4)">
                    <g transform="matrix(0.933595,0,0,1,14.8462,-28.1195)">
                        <rect x="228.561" y="156.407" width="16.727" height="86.729" style="fill:white;"/>
                    </g>
                </g>
                <path d="M298.66,157.013L313.06,157.013L313.06,164.501L313.252,164.501C314.788,161.621 316.612,159.461 318.724,158.021C320.836,156.581 323.492,155.861 326.692,155.861C327.524,155.861 328.356,155.893 329.188,155.957C330.02,156.021 330.788,156.149 331.492,156.341L331.492,169.493C330.468,169.173 329.46,168.933 328.468,168.773C327.476,168.613 326.436,168.533 325.348,168.533C322.596,168.533 320.42,168.917 318.82,169.685C317.22,170.453 315.988,171.525 315.124,172.901C314.26,174.277 313.7,175.925 313.444,177.845C313.188,179.765 313.06,181.877 313.06,184.181L313.06,203.669L298.66,203.669L298.66,157.013Z" style="fill:rgb(204,105,51);fill-rule:nonzero;"/>
                <clipPath id="_clip5">
                    <path d="M298.66,157.013L313.06,157.013L313.06,164.501L313.252,164.501C314.788,161.621 316.612,159.461 318.724,158.021C320.836,156.581 323.492,155.861 326.692,155.861C327.524,155.861 328.356,155.893 329.188,155.957C330.02,156.021 330.788,156.149 331.492,156.341L331.492,169.493C330.468,169.173 329.46,168.933 328.468,168.773C327.476,168.613 326.436,168.533 325.348,168.533C322.596,168.533 320.42,168.917 318.82,169.685C317.22,170.453 315.988,171.525 315.124,172.901C314.26,174.277 313.7,175.925 313.444,177.845C313.188,179.765 313.06,181.877 313.06,184.181L313.06,203.669L298.66,203.669L298.66,157.013Z" clip-rule="nonzero"/>
                </clipPath>
                <g clip-path="url(#_clip5)">
                    <g transform="matrix(0.933595,0,0,1,14.8462,-28.1195)">
                        <rect x="228.561" y="156.407" width="16.727" height="86.729" style="fill:white;"/>
                    </g>
                </g>
                <path d="M375.172,195.605C372.868,198.549 369.956,200.821 366.436,202.421C362.916,204.021 359.268,204.821 355.492,204.821C351.908,204.821 348.532,204.245 345.364,203.093C342.196,201.941 339.444,200.293 337.108,198.149C334.772,196.005 332.932,193.429 331.588,190.421C330.244,187.413 329.572,184.053 329.572,180.341C329.572,176.629 330.244,173.269 331.588,170.261C332.932,167.253 334.772,164.677 337.108,162.533C339.444,160.389 342.196,158.741 345.364,157.589C348.532,156.437 351.908,155.861 355.492,155.861C358.82,155.861 361.844,156.437 364.564,157.589C367.284,158.741 369.588,160.389 371.476,162.533C373.364,164.677 374.82,167.253 375.844,170.261C376.868,173.269 377.38,176.629 377.38,180.341L377.38,184.853L343.972,184.853C344.548,187.605 345.796,189.797 347.716,191.429C349.636,193.061 352.004,193.877 354.82,193.877C357.188,193.877 359.188,193.349 360.82,192.293C362.452,191.237 363.876,189.877 365.092,188.213L375.172,195.605ZM362.98,175.061C363.044,172.629 362.244,170.549 360.58,168.821C358.916,167.093 356.772,166.229 354.148,166.229C352.548,166.229 351.14,166.485 349.924,166.997C348.708,167.509 347.668,168.165 346.804,168.965C345.94,169.765 345.268,170.693 344.788,171.749C344.308,172.805 344.036,173.909 343.972,175.061L362.98,175.061Z" style="fill:rgb(204,105,51);fill-rule:nonzero;"/>
                <clipPath id="_clip6">
                    <path d="M375.172,195.605C372.868,198.549 369.956,200.821 366.436,202.421C362.916,204.021 359.268,204.821 355.492,204.821C351.908,204.821 348.532,204.245 345.364,203.093C342.196,201.941 339.444,200.293 337.108,198.149C334.772,196.005 332.932,193.429 331.588,190.421C330.244,187.413 329.572,184.053 329.572,180.341C329.572,176.629 330.244,173.269 331.588,170.261C332.932,167.253 334.772,164.677 337.108,162.533C339.444,160.389 342.196,158.741 345.364,157.589C348.532,156.437 351.908,155.861 355.492,155.861C358.82,155.861 361.844,156.437 364.564,157.589C367.284,158.741 369.588,160.389 371.476,162.533C373.364,164.677 374.82,167.253 375.844,170.261C376.868,173.269 377.38,176.629 377.38,180.341L377.38,184.853L343.972,184.853C344.548,187.605 345.796,189.797 347.716,191.429C349.636,193.061 352.004,193.877 354.82,193.877C357.188,193.877 359.188,193.349 360.82,192.293C362.452,191.237 363.876,189.877 365.092,188.213L375.172,195.605ZM362.98,175.061C363.044,172.629 362.244,170.549 360.58,168.821C358.916,167.093 356.772,166.229 354.148,166.229C352.548,166.229 351.14,166.485 349.924,166.997C348.708,167.509 347.668,168.165 346.804,168.965C345.94,169.765 345.268,170.693 344.788,171.749C344.308,172.805 344.036,173.909 343.972,175.061L362.98,175.061Z" clip-rule="nonzero"/>
                </clipPath>
                <g clip-path="url(#_clip6)">
                    <g transform="matrix(0.933595,0,0,1,14.8462,-28.1195)">
                        <rect x="228.561" y="156.407" width="16.727" height="86.729" style="fill:white;"/>
                    </g>
                </g>
            </g>
            <g transform="matrix(1,0,0,1,-1.54309,0.909051)">
                <g transform="matrix(0.157691,0.0469826,-0.0516976,0.143309,237.297,91.0084)">
                    <path d="M172.086,222.751C160.212,267.582 189.699,308.524 194.151,330.368C198.292,350.686 189.536,396.843 167.243,396.843C144.95,396.843 128.051,362.329 134.332,310.611C137.02,288.481 188.587,160.448 172.086,222.751Z" style="fill:rgb(255,189,0);stroke-width:14.93px;stroke:rgb(204,105,51);"/>
                </g>
                <g transform="matrix(0.341653,-0.108001,0.118839,0.310494,150.507,107.543)">
                    <g transform="matrix(2.61103,0.908212,-0.999356,2.87307,-276.957,-448.846)">
                        <path d="M229.939,206.308C227.254,205.052 224.593,201.415 223.29,195.964C222.505,192.679 223.607,171.886 224.418,181.579C225.001,188.553 231.855,192.924 233.743,195.815C235.325,198.235 236.41,204.156 234.062,206.12C232.771,209.93 232.878,216.086 234.125,219.288C235.579,223.017 241.241,231.907 240.247,232.413L236.714,233.016C232.821,232.31 229.428,224.064 228.633,220.214C227.982,217.063 228.633,209.282 229.939,206.308Z" style="fill:rgb(255,189,0);stroke-width:2.3px;stroke:rgb(204,105,51);"/>
                    </g>
                    <g transform="matrix(0.455375,0.0556515,-0.0556515,0.455375,89.6693,125.232)">
                        <path d="M172.086,222.751C160.212,267.582 189.699,308.524 194.151,330.368C198.292,350.686 189.536,396.843 167.243,396.843C144.95,396.843 128.051,362.329 134.332,310.611C137.02,288.481 188.587,160.448 172.086,222.751Z" style="fill:rgb(255,189,0);stroke-width:14.23px;stroke:rgb(204,105,51);"/>
                    </g>
                    <g transform="matrix(0.441442,0.124872,-0.124872,0.441442,142.422,77.6191)">
                        <path d="M172.086,222.751C160.212,267.582 189.699,308.524 194.151,330.368C198.292,350.686 189.536,396.843 167.243,396.843C144.95,396.843 128.051,362.329 134.332,310.611C137.02,288.481 188.587,160.448 172.086,222.751Z" style="fill:rgb(255,189,0);stroke-width:14.42px;stroke:rgb(204,105,51);"/>
                    </g>
                </g>
                <g>
                    <g transform="matrix(-0.129101,-0.0947594,-0.104269,0.117327,302.276,164.528)">
                        <path d="M172.086,222.751C160.212,267.582 189.699,308.524 194.151,330.368C198.292,350.686 189.536,396.843 167.243,396.843C144.95,396.843 128.051,362.329 134.332,310.611C137.02,288.481 188.587,160.448 172.086,222.751Z" style="fill:rgb(255,189,0);stroke-width:13.87px;stroke:rgb(204,105,51);"/>
                    </g>
                    <g transform="matrix(-0.135112,-0.0859717,-0.0962427,0.123996,299.81,174.094)">
                        <path d="M172.086,222.751C160.212,267.582 189.699,308.524 194.151,330.368C198.292,350.686 189.536,396.843 167.243,396.843C144.95,396.843 128.051,362.329 134.332,310.611C137.02,288.481 188.587,160.448 172.086,222.751Z" style="fill:rgb(255,189,0);stroke-width:13.87px;stroke:rgb(204,105,51);"/>
                    </g>
                    <g transform="matrix(-0.140796,-0.079827,-0.0878381,0.127955,302.281,143.511)">
                        <path d="M172.086,222.751C160.212,267.582 189.699,308.524 194.151,330.368C198.292,350.686 189.536,396.843 167.243,396.843C144.95,396.843 128.051,362.329 134.332,310.611C137.02,288.481 188.587,160.448 172.086,222.751Z" style="fill:rgb(255,189,0);stroke-width:13.92px;stroke:rgb(204,105,51);"/>
                    </g>
                    <g transform="matrix(-0.152608,-0.0592459,-0.0651916,0.13869,298.257,121.438)">
                        <path d="M172.086,222.751C160.212,267.582 189.699,308.524 194.151,330.368C198.292,350.686 189.536,396.843 167.243,396.843C144.95,396.843 128.051,362.329 134.332,310.611C137.02,288.481 188.587,160.448 172.086,222.751Z" style="fill:rgb(255,189,0);stroke-width:14.03px;stroke:rgb(204,105,51);"/>
                    </g>
                </g>
            </g>
        </g>
    </g>
</svg>
