<?xml version="1.0" encoding="UTF-8" standalone="no"?>
<!DOCTYPE svg PUBLIC "-//W3C//DTD SVG 1.1//EN" "http://www.w3.org/Graphics/SVG/1.1/DTD/svg11.dtd">
<svg width="100%" height="100%" viewBox="0 0 345 400" version="1.1" xmlns="http://www.w3.org/2000/svg" xmlns:xlink="http://www.w3.org/1999/xlink" xml:space="preserve" style="fill-rule:evenodd;clip-rule:evenodd;stroke-linejoin:round;stroke-miterlimit:1.41421;">
    <g transform="matrix(1,0,0,1,-327.658,-196.169)">
        <path d="M527.131,425.489C526.771,426.059 526.579,426.719 526.579,427.393C526.579,439.46 526.579,553.883 526.579,587.136C526.579,588.597 525.686,589.91 524.326,590.447C522.967,590.983 521.418,590.634 520.42,589.566C507.837,576.1 479.901,546.203 474.379,540.294C473.763,539.635 473.421,538.767 473.421,537.864C473.421,525.671 473.421,437.92 473.421,427.393C473.421,426.719 473.229,426.059 472.869,425.489C464.637,412.49 366.699,257.825 336.48,210.102C334.71,207.306 334.601,203.768 336.197,200.869C337.793,197.97 340.839,196.169 344.149,196.169C402.335,196.169 597.665,196.169 655.851,196.169C659.161,196.169 662.207,197.97 663.803,200.869C665.399,203.768 665.29,207.306 663.52,210.102C633.301,257.825 535.363,412.49 527.131,425.489Z" style="fill:rgb(117,117,117);"/>
    </g>
</svg>
